<svg xmlns="http://www.w3.org/2000/svg" height="40" viewBox="0 -960 960 960" width="40"><path d="m479.761-111.58-51.21-46.065q-104.976-95.798-173.492-165.316-68.515-69.517-109.048-124.535-40.533-55.019-56.74-100.323-16.206-45.304-16.206-92.197 0-94.393 63.251-157.656 63.251-63.263 156.778-63.263 55.135 0 102.955 24.536 47.821 24.537 83.712 70.834 39.891-48.297 86.66-71.834 46.769-23.536 100.007-23.536 93.866 0 157.187 63.268Q886.935-734.4 886.935-640q0 46.792-16.167 92.019-16.166 45.227-56.739 100.206-40.573 54.978-109.187 124.633T531.13-157.645l-51.369 46.065Zm-.08-100.702q99.252-90.664 163.228-155.06 63.975-64.397 101.363-112.538 37.388-48.142 52.149-85.662 14.761-37.521 14.761-74.356 0-63.146-40.754-104.215t-103.735-41.069q-49.335 0-91.503 29.914-42.168 29.913-65.169 81.42h-60.948q-22.256-51-64.616-81.167-42.359-30.167-91.465-30.167-62.688 0-103.311 40.967-40.623 40.966-40.623 104.425 0 37.212 14.866 75.13 14.866 37.919 52.268 86.366 37.402 48.446 101.471 112.468t162.018 153.544Zm.558-286.53Z"/></svg>