<svg xmlns="http://www.w3.org/2000/svg" width="215" height="100" fill="none" viewBox="0 0 215 100">
  <path fill="#272727" d="M15.875 80.078H3.792c-.97 0-1.391.64-1.391 1.292 0 .614.422 1.26 1.39 1.26h4.59v11.933c0 .895.744 1.317 1.442 1.317.64 0 1.458-.422 1.458-1.317l-.026-11.933h4.62c.938 0 1.458-.646 1.458-1.26 0-.651-.52-1.292-1.458-1.292Zm17.235 13.37-2.974-3.125c2.53-.719 3.77-2.557 3.77-4.885 0-2.98-2.255-5.36-6.698-5.36h-5.53c-.845 0-1.438.521-1.438 1.292v13.245c0 .817.692 1.265 1.437 1.265.693 0 1.438-.448 1.438-1.291v-3.922h3.744l4.443 4.74c1.24 1.338 3.323-.376 1.807-1.96Zm-9.995-5.188v-5.677h4.12c2.333 0 3.744 1.24 3.77 2.875.047 1.516-1.12 2.802-3.77 2.802h-4.12Zm29.89-.27c0-4.886-3.224-8.162-8.057-8.162-4.865 0-8.14 3.276-8.14 8.162 0 4.885 3.275 8.14 8.14 8.14 4.833 0 8.057-3.255 8.057-8.14Zm-8.057 5.604c-3.13 0-5.214-2.255-5.214-5.604 0-3.375 2.084-5.63 5.214-5.63 3.099 0 5.156 2.255 5.156 5.63 0 3.349-2.057 5.604-5.156 5.604Zm19.646-13.766c-4.594 0-8.115 3.177-8.115 7.964 0 5.01 3.276 8.338 8.162 8.338 2.432 0 5.135-1.166 6.5-3.083 1.213-1.688-.917-3.1-2.256-1.484-.948 1.14-2.63 2.03-4.192 2.03-3.23 0-5.36-2.301-5.36-5.801 0-3.25 2.084-5.433 5.235-5.433 1.536 0 2.9.271 4.14 1.61 1.292 1.39 3.401-.172 2.063-1.682-1.615-1.813-3.75-2.459-6.177-2.459Zm17.14 0c-.645 0-1.041.151-1.291.693L73.37 94.365c-.443.968.526 1.765 1.396 1.765.468 0 .99-.203 1.24-.724l1.734-3.448h7.99l1.733 3.448c.25.474.797.724 1.266.724.943 0 1.938-.75 1.287-1.838L83 80.52c-.25-.495-.745-.693-1.266-.693Zm0 4.193 2.776 5.531h-5.557l2.781-5.531Zm22.573-1.537h8.386c.896 0 1.312-.599 1.312-1.192 0-.62-.416-1.214-1.312-1.214h-9.625c-.87 0-1.61.667-1.61 1.459v13.025c0 .844.719 1.318 1.438 1.318.693 0 1.411-.474 1.411-1.343v-4.735h7.938c.87 0 1.291-.573 1.291-1.167 0-.593-.421-1.213-1.291-1.213h-7.938v-4.938Zm20.292-2.656c-.646 0-1.042.151-1.286.693l-7.073 13.844c-.448.968.52 1.765 1.39 1.765.469 0 .995-.203 1.24-.724l1.739-3.448h7.985l1.739 3.448c.245.474.792.724 1.261.724.942 0 1.937-.75 1.291-1.838l-7.02-13.771c-.25-.495-.745-.693-1.266-.693Zm0 4.193 2.781 5.531h-5.557l2.776-5.531Zm10.521 8.109c.838 3.104 4.786 4 7.364 4 3.099 0 7.443-1.099 7.443-5.036 0-3.948-3.719-4.1-7.167-4.422-2.432-.172-4.515-.37-4.515-1.984 0-1.735 2.677-2.204 4.015-2.204 1.516 0 3.75.198 4.344 1.735.198.448.719.693 1.261.693.849 0 1.687-.693 1.416-1.61-1.166-2.73-4.463-3.474-7.041-3.474-3.105 0-6.974 1.438-6.974 4.839 0 3.77 3.843 4.24 7.218 4.51 2.209.177 4.464.375 4.464 1.938 0 1.963-2.724 2.406-4.464 2.406-1.661 0-3.942-.375-4.489-1.984-.125-.646-.719-.97-1.365-.97-.87 0-1.76.595-1.51 1.563Zm30.088-12.052c-.718 0-1.411.443-1.411 1.292v5.65h-7.417v-5.65c0-.85-.75-1.292-1.469-1.292-.718 0-1.385.443-1.385 1.292v13.166c0 .87.719 1.344 1.464 1.344.671 0 1.39-.422 1.39-1.343v-5.11h7.417v5.11c0 .895.693 1.343 1.411 1.343.698 0 1.464-.448 1.464-1.343V81.37c0-.85-.766-1.292-1.464-1.292Zm6.151 1.339v13.198c0 .864.693 1.265 1.443 1.265.719 0 1.464-.422 1.464-1.265V81.417c0-.917-.745-1.339-1.464-1.339-.75 0-1.443.422-1.443 1.339Zm22.256 6.573c0-4.886-3.23-8.162-8.063-8.162-4.865 0-8.135 3.276-8.135 8.162 0 4.885 3.27 8.14 8.135 8.14 4.833 0 8.063-3.255 8.063-8.14Zm-8.063 5.604c-3.13 0-5.213-2.255-5.213-5.604 0-3.375 2.083-5.63 5.213-5.63 3.099 0 5.162 2.255 5.162 5.63 0 3.349-2.063 5.604-5.162 5.604Zm22.922-12.302v7.984l.099 1.667-7.792-10.125c-.396-.495-.817-.74-1.437-.74-.792 0-1.516.521-1.516 1.51v12.975c0 .916.724 1.317 1.49 1.317.718 0 1.463-.4 1.463-1.317v-7.787l-.099-1.39 7.594 9.776c.318.416.917.718 1.484.718.823 0 1.662-.5 1.662-1.49V81.293c0-.844-.693-1.214-1.438-1.214-.744 0-1.51.422-1.51 1.214Z"/>
  <mask id="a" width="77" height="51" x="68" y="2" maskUnits="userSpaceOnUse" style="mask-type:luminance">
    <path fill="#fff" d="M68.26 2.505h76.209v50.031H68.26V2.506Z"/>
  </mask>
  <g mask="url(#a)">
    <path fill="#8C52FF" d="M74.292 46.625c.703 3.297 3.625 5.682 6.974 5.682h35.312c3.344 0 6.266-2.385 6.974-5.682l8.287-39.182a2.11 2.11 0 0 1 2.067-1.698h8.86c.869 0 1.573-.709 1.573-1.584 0-.875-.704-1.588-1.573-1.588h-8.86c-2.479 0-4.64 1.776-5.161 4.213l-5.141 24.355H88.088l5.777-5.818a1.59 1.59 0 0 0 0-2.23 1.562 1.562 0 0 0-2.224 0l-8.454 8.511a1.594 1.594 0 0 0 0 2.235l8.438 8.5c.313.317.703.463 1.11.463a1.5 1.5 0 0 0 1.109-.463 1.6 1.6 0 0 0 0-2.24l-5.771-5.813H122.9l-2.458 11.683a3.986 3.986 0 0 1-3.886 3.172H81.245c-1.865 0-3.495-1.344-3.88-3.172L71.609 18.75a2.138 2.138 0 0 1 2.073-2.589h39.526l-5.771 5.813a1.595 1.595 0 0 0 0 2.234c.313.318.704.47 1.11.47.406 0 .818-.152 1.109-.47l8.453-8.515c.297-.297.464-.709.464-1.115a1.6 1.6 0 0 0-.464-1.12l-8.453-8.515a1.566 1.566 0 0 0-2.219 0 1.595 1.595 0 0 0 0 2.234l5.771 5.813H73.703a5.295 5.295 0 0 0-4.11 1.979c-1.015 1.245-1.385 2.864-1.051 4.453l5.75 27.203Z"/>
  </g>
  <path fill="#8C52FF" d="M77.677 63.411c0 4.136 3.35 7.51 7.453 7.51 4.11 0 7.453-3.374 7.453-7.51 0-4.135-3.343-7.51-7.453-7.51-4.104 0-7.453 3.375-7.453 7.51Zm11.766 0c0 2.386-1.922 4.339-4.313 4.339-2.385 0-4.307-1.932-4.307-4.339 0-2.406 1.922-4.338 4.307-4.338 2.39 0 4.313 1.953 4.313 4.338Zm15.776 0c0 4.136 3.349 7.51 7.453 7.51s7.458-3.374 7.458-7.51c0-4.135-3.354-7.51-7.458-7.51s-7.453 3.375-7.453 7.51Zm11.765 0c0 2.386-1.927 4.339-4.312 4.339-2.386 0-4.307-1.932-4.307-4.339 0-2.406 1.921-4.338 4.307-4.338 2.385 0 4.312 1.953 4.312 4.338Z"/>
</svg>
