<svg xmlns="http://www.w3.org/2000/svg" xmlns:xlink="http://www.w3.org/1999/xlink" width="215" zoomAndPan="magnify" viewBox="0 0 161.25 74.999997" height="100" preserveAspectRatio="xMidYMid meet" version="1.0"><defs><clipPath id="1060fad1bf"><path d="M 0 0.171875 L 160.503906 0.171875 L 160.503906 74.824219 L 0 74.824219 Z M 0 0.171875 " clip-rule="nonzero"/></clipPath><clipPath id="45ac9834bc"><path d="M 51.195312 1.878906 L 108.351562 1.878906 L 108.351562 39.402344 L 51.195312 39.402344 Z M 51.195312 1.878906 " clip-rule="nonzero"/></clipPath></defs><g clip-path="url(#1060fad1bf)"><rect x="-16.125" width="193.5" fill="#ffffff" y="-7.5" height="89.999996" fill-opacity="1"/><rect x="-16.125" width="193.5" fill="#ffffff" y="-7.5" height="89.999996" fill-opacity="1"/><rect x="-16.125" width="193.5" fill="#ffffff" y="-7.5" height="89.999996" fill-opacity="1"/></g><path fill="#272727" d="M 11.90625 60.058594 L 2.84375 60.058594 C 2.117188 60.058594 1.800781 60.539062 1.800781 61.027344 C 1.800781 61.488281 2.117188 61.972656 2.84375 61.972656 L 6.285156 61.972656 L 6.285156 70.921875 C 6.285156 71.59375 6.84375 71.910156 7.367188 71.910156 C 7.847656 71.910156 8.460938 71.59375 8.460938 70.921875 L 8.441406 61.972656 L 11.90625 61.972656 C 12.609375 61.972656 13 61.488281 13 61.027344 C 13 60.539062 12.609375 60.058594 11.90625 60.058594 Z M 11.90625 60.058594 " fill-opacity="1" fill-rule="nonzero"/><path fill="#272727" d="M 24.832031 70.085938 L 22.601562 67.742188 C 24.5 67.203125 25.429688 65.824219 25.429688 64.078125 C 25.429688 61.84375 23.738281 60.058594 20.40625 60.058594 L 16.257812 60.058594 C 15.625 60.058594 15.179688 60.449219 15.179688 61.027344 L 15.179688 70.960938 C 15.179688 71.574219 15.699219 71.910156 16.257812 71.910156 C 16.777344 71.910156 17.335938 71.574219 17.335938 70.941406 L 17.335938 68 L 20.144531 68 L 23.476562 71.554688 C 24.40625 72.558594 25.96875 71.273438 24.832031 70.085938 Z M 17.335938 66.195312 L 17.335938 61.9375 L 20.425781 61.9375 C 22.175781 61.9375 23.234375 62.867188 23.253906 64.09375 C 23.289062 65.230469 22.414062 66.195312 20.425781 66.195312 Z M 17.335938 66.195312 " fill-opacity="1" fill-rule="nonzero"/><path fill="#272727" d="M 39.753906 65.992188 C 39.753906 62.328125 37.335938 59.871094 33.710938 59.871094 C 30.0625 59.871094 27.605469 62.328125 27.605469 65.992188 C 27.605469 69.65625 30.0625 72.097656 33.710938 72.097656 C 37.335938 72.097656 39.753906 69.65625 39.753906 65.992188 Z M 33.710938 70.195312 C 31.363281 70.195312 29.800781 68.503906 29.800781 65.992188 C 29.800781 63.460938 31.363281 61.769531 33.710938 61.769531 C 36.035156 61.769531 37.578125 63.460938 37.578125 65.992188 C 37.578125 68.503906 36.035156 70.195312 33.710938 70.195312 Z M 33.710938 70.195312 " fill-opacity="1" fill-rule="nonzero"/><path fill="#272727" d="M 48.445312 59.871094 C 45 59.871094 42.359375 62.253906 42.359375 65.84375 C 42.359375 69.601562 44.816406 72.097656 48.480469 72.097656 C 50.304688 72.097656 52.332031 71.222656 53.355469 69.785156 C 54.265625 68.519531 52.667969 67.460938 51.664062 68.671875 C 50.953125 69.527344 49.691406 70.195312 48.519531 70.195312 C 46.097656 70.195312 44.5 68.46875 44.5 65.84375 C 44.5 63.40625 46.0625 61.769531 48.425781 61.769531 C 49.578125 61.769531 50.601562 61.972656 51.53125 62.976562 C 52.5 64.019531 54.082031 62.847656 53.078125 61.714844 C 51.867188 60.355469 50.265625 59.871094 48.445312 59.871094 Z M 48.445312 59.871094 " fill-opacity="1" fill-rule="nonzero"/><path fill="#272727" d="M 61.300781 59.871094 C 60.816406 59.871094 60.519531 59.984375 60.332031 60.390625 L 55.027344 70.773438 C 54.695312 71.5 55.421875 72.097656 56.074219 72.097656 C 56.425781 72.097656 56.816406 71.945312 57.003906 71.554688 L 58.304688 68.96875 L 64.296875 68.96875 L 65.597656 71.554688 C 65.785156 71.910156 66.195312 72.097656 66.546875 72.097656 C 67.253906 72.097656 68 71.535156 67.511719 70.71875 L 62.25 60.390625 C 62.0625 60.019531 61.691406 59.871094 61.300781 59.871094 Z M 61.300781 63.015625 L 63.382812 67.164062 L 59.214844 67.164062 Z M 61.300781 63.015625 " fill-opacity="1" fill-rule="nonzero"/><path fill="#272727" d="M 78.230469 61.863281 L 84.519531 61.863281 C 85.191406 61.863281 85.503906 61.414062 85.503906 60.96875 C 85.503906 60.503906 85.191406 60.058594 84.519531 60.058594 L 77.300781 60.058594 C 76.648438 60.058594 76.09375 60.558594 76.09375 61.152344 L 76.09375 70.921875 C 76.09375 71.554688 76.632812 71.910156 77.171875 71.910156 C 77.691406 71.910156 78.230469 71.554688 78.230469 70.902344 L 78.230469 67.351562 L 84.183594 67.351562 C 84.835938 67.351562 85.152344 66.921875 85.152344 66.476562 C 85.152344 66.03125 84.835938 65.566406 84.183594 65.566406 L 78.230469 65.566406 Z M 78.230469 61.863281 " fill-opacity="1" fill-rule="nonzero"/><path fill="#272727" d="M 93.449219 59.871094 C 92.964844 59.871094 92.667969 59.984375 92.484375 60.390625 L 87.179688 70.773438 C 86.84375 71.5 87.570312 72.097656 88.222656 72.097656 C 88.574219 72.097656 88.96875 71.945312 89.152344 71.554688 L 90.457031 68.96875 L 96.445312 68.96875 L 97.75 71.554688 C 97.933594 71.910156 98.34375 72.097656 98.695312 72.097656 C 99.402344 72.097656 100.148438 71.535156 99.664062 70.71875 L 94.398438 60.390625 C 94.210938 60.019531 93.839844 59.871094 93.449219 59.871094 Z M 93.449219 63.015625 L 95.535156 67.164062 L 91.367188 67.164062 Z M 93.449219 63.015625 " fill-opacity="1" fill-rule="nonzero"/><path fill="#272727" d="M 101.339844 69.097656 C 101.96875 71.425781 104.929688 72.097656 106.863281 72.097656 C 109.1875 72.097656 112.445312 71.273438 112.445312 68.320312 C 112.445312 65.359375 109.65625 65.246094 107.070312 65.003906 C 105.246094 64.875 103.683594 64.726562 103.683594 63.515625 C 103.683594 62.214844 105.691406 61.863281 106.695312 61.863281 C 107.832031 61.863281 109.507812 62.011719 109.953125 63.164062 C 110.101562 63.5 110.492188 63.683594 110.898438 63.683594 C 111.535156 63.683594 112.164062 63.164062 111.960938 62.476562 C 111.085938 60.429688 108.613281 59.871094 106.679688 59.871094 C 104.351562 59.871094 101.449219 60.949219 101.449219 63.5 C 101.449219 66.328125 104.332031 66.679688 106.863281 66.882812 C 108.519531 67.015625 110.210938 67.164062 110.210938 68.335938 C 110.210938 69.808594 108.167969 70.140625 106.863281 70.140625 C 105.617188 70.140625 103.90625 69.859375 103.496094 68.652344 C 103.402344 68.167969 102.957031 67.925781 102.472656 67.925781 C 101.820312 67.925781 101.152344 68.371094 101.339844 69.097656 Z M 101.339844 69.097656 " fill-opacity="1" fill-rule="nonzero"/><path fill="#272727" d="M 123.90625 60.058594 C 123.367188 60.058594 122.847656 60.390625 122.847656 61.027344 L 122.847656 65.265625 L 117.285156 65.265625 L 117.285156 61.027344 C 117.285156 60.390625 116.722656 60.058594 116.183594 60.058594 C 115.644531 60.058594 115.144531 60.390625 115.144531 61.027344 L 115.144531 70.902344 C 115.144531 71.554688 115.683594 71.910156 116.242188 71.910156 C 116.746094 71.910156 117.285156 71.59375 117.285156 70.902344 L 117.285156 67.070312 L 122.847656 67.070312 L 122.847656 70.902344 C 122.847656 71.574219 123.367188 71.910156 123.90625 71.910156 C 124.429688 71.910156 125.003906 71.574219 125.003906 70.902344 L 125.003906 61.027344 C 125.003906 60.390625 124.429688 60.058594 123.90625 60.058594 Z M 123.90625 60.058594 " fill-opacity="1" fill-rule="nonzero"/><path fill="#272727" d="M 128.519531 61.0625 L 128.519531 70.960938 C 128.519531 71.609375 129.039062 71.910156 129.601562 71.910156 C 130.140625 71.910156 130.699219 71.59375 130.699219 70.960938 L 130.699219 61.0625 C 130.699219 60.375 130.140625 60.058594 129.601562 60.058594 C 129.039062 60.058594 128.519531 60.375 128.519531 61.0625 Z M 128.519531 61.0625 " fill-opacity="1" fill-rule="nonzero"/><path fill="#272727" d="M 145.210938 65.992188 C 145.210938 62.328125 142.789062 59.871094 139.164062 59.871094 C 135.515625 59.871094 133.0625 62.328125 133.0625 65.992188 C 133.0625 69.65625 135.515625 72.097656 139.164062 72.097656 C 142.789062 72.097656 145.210938 69.65625 145.210938 65.992188 Z M 139.164062 70.195312 C 136.816406 70.195312 135.253906 68.503906 135.253906 65.992188 C 135.253906 63.460938 136.816406 61.769531 139.164062 61.769531 C 141.488281 61.769531 143.035156 63.460938 143.035156 65.992188 C 143.035156 68.503906 141.488281 70.195312 139.164062 70.195312 Z M 139.164062 70.195312 " fill-opacity="1" fill-rule="nonzero"/><path fill="#272727" d="M 156.355469 60.96875 L 156.355469 66.957031 L 156.429688 68.207031 L 150.585938 60.613281 C 150.289062 60.242188 149.972656 60.058594 149.507812 60.058594 C 148.914062 60.058594 148.371094 60.449219 148.371094 61.191406 L 148.371094 70.921875 C 148.371094 71.609375 148.914062 71.910156 149.488281 71.910156 C 150.027344 71.910156 150.585938 71.609375 150.585938 70.921875 L 150.585938 65.082031 L 150.511719 64.039062 L 156.207031 71.371094 C 156.445312 71.683594 156.894531 71.910156 157.320312 71.910156 C 157.9375 71.910156 158.566406 71.535156 158.566406 70.792969 L 158.566406 60.96875 C 158.566406 60.335938 158.046875 60.058594 157.488281 60.058594 C 156.929688 60.058594 156.355469 60.375 156.355469 60.96875 Z M 156.355469 60.96875 " fill-opacity="1" fill-rule="nonzero"/><g clip-path="url(#45ac9834bc)"><path fill="#8c52ff" d="M 55.71875 34.96875 C 56.246094 37.441406 58.4375 39.230469 60.949219 39.230469 L 87.433594 39.230469 C 89.941406 39.230469 92.132812 37.441406 92.664062 34.96875 L 98.878906 5.582031 C 99.027344 4.839844 99.679688 4.308594 100.429688 4.308594 L 107.074219 4.308594 C 107.726562 4.308594 108.253906 3.777344 108.253906 3.121094 C 108.253906 2.464844 107.726562 1.929688 107.074219 1.929688 L 100.429688 1.929688 C 98.570312 1.929688 96.949219 3.261719 96.558594 5.089844 L 92.703125 23.355469 L 66.066406 23.355469 L 70.398438 18.992188 C 70.855469 18.535156 70.855469 17.777344 70.398438 17.320312 C 69.941406 16.855469 69.1875 16.855469 68.730469 17.320312 L 62.390625 23.703125 C 61.933594 24.164062 61.933594 24.921875 62.390625 25.378906 L 68.71875 31.753906 C 68.953125 31.992188 69.246094 32.101562 69.550781 32.101562 C 69.855469 32.101562 70.160156 31.992188 70.382812 31.753906 C 70.839844 31.292969 70.839844 30.539062 70.382812 30.074219 L 66.054688 25.714844 L 92.175781 25.714844 L 90.332031 34.476562 C 90.039062 35.863281 88.820312 36.855469 87.417969 36.855469 L 60.933594 36.855469 C 59.535156 36.855469 58.3125 35.847656 58.023438 34.476562 L 53.707031 14.0625 C 53.609375 13.585938 53.722656 13.097656 54.027344 12.71875 C 54.332031 12.34375 54.789062 12.121094 55.261719 12.121094 L 84.90625 12.121094 L 80.578125 16.480469 C 80.121094 16.941406 80.121094 17.695312 80.578125 18.15625 C 80.8125 18.394531 81.105469 18.507812 81.410156 18.507812 C 81.714844 18.507812 82.023438 18.394531 82.242188 18.15625 L 88.582031 11.769531 C 88.804688 11.546875 88.929688 11.238281 88.929688 10.933594 C 88.929688 10.625 88.804688 10.316406 88.582031 10.09375 L 82.242188 3.707031 C 81.785156 3.246094 81.039062 3.246094 80.578125 3.707031 C 80.121094 4.167969 80.121094 4.921875 80.578125 5.382812 L 84.90625 9.742188 L 55.277344 9.742188 C 54.082031 9.742188 52.957031 10.289062 52.195312 11.226562 C 51.433594 12.160156 51.15625 13.375 51.40625 14.566406 Z M 55.71875 34.96875 " fill-opacity="1" fill-rule="nonzero"/></g><path fill="#8c52ff" d="M 58.257812 47.558594 C 58.257812 50.660156 60.769531 53.191406 63.847656 53.191406 C 66.929688 53.191406 69.4375 50.660156 69.4375 47.558594 C 69.4375 44.457031 66.929688 41.925781 63.847656 41.925781 C 60.769531 41.925781 58.257812 44.457031 58.257812 47.558594 Z M 67.082031 47.558594 C 67.082031 49.347656 65.640625 50.8125 63.847656 50.8125 C 62.058594 50.8125 60.617188 49.363281 60.617188 47.558594 C 60.617188 45.753906 62.058594 44.304688 63.847656 44.304688 C 65.640625 44.304688 67.082031 45.769531 67.082031 47.558594 Z M 67.082031 47.558594 " fill-opacity="1" fill-rule="nonzero"/><path fill="#8c52ff" d="M 78.914062 47.558594 C 78.914062 50.660156 81.425781 53.191406 84.503906 53.191406 C 87.582031 53.191406 90.097656 50.660156 90.097656 47.558594 C 90.097656 44.457031 87.582031 41.925781 84.503906 41.925781 C 81.425781 41.925781 78.914062 44.457031 78.914062 47.558594 Z M 87.738281 47.558594 C 87.738281 49.347656 86.292969 50.8125 84.503906 50.8125 C 82.714844 50.8125 81.273438 49.363281 81.273438 47.558594 C 81.273438 45.753906 82.714844 44.304688 84.503906 44.304688 C 86.292969 44.304688 87.738281 45.769531 87.738281 47.558594 Z M 87.738281 47.558594 " fill-opacity="1" fill-rule="nonzero"/></svg>